<?xml version="1.0" encoding="UTF-8"?>
<svg version="1.1" xmlns="http://www.w3.org/2000/svg" width="300" height="300">
<path d="M0 0 C99 0 198 0 300 0 C300 99 300 198 300 300 C201 300 102 300 0 300 C0 201 0 102 0 0 Z " fill="#0092E5" transform="translate(0,0)"/>
<path d="M0 0 C3.33557632 2.9905167 5.15083921 5.93184627 7 10 C8.65 8.35 10.3 6.7 12 5 C12.495 5.99 12.495 5.99 13 7 C13.66 7 14.32 7 15 7 C14.67 8.65 14.34 10.3 14 12 C14.515625 11.835 15.03125 11.67 15.5625 11.5 C18.78123414 10.83974684 21.72277139 10.82124208 25 11 C25.99 11.66 26.98 12.32 28 13 C26.68 13.33 25.36 13.66 24 14 C28.92104318 16.52361189 33.93601936 18.78310181 39 21 C38.67 21.66 38.34 22.32 38 23 C39.0828125 23.6496875 39.0828125 23.6496875 40.1875 24.3125 C41.115625 24.869375 42.04375 25.42625 43 26 C43.928125 26.515625 44.85625 27.03125 45.8125 27.5625 C46.8953125 28.2740625 46.8953125 28.2740625 48 29 C48 29.66 48 30.32 48 31 C46.68 31.66 45.36 32.32 44 33 C46.6598561 36.44216672 49.90288286 36.99504674 54 38 C53.01 38.99 53.01 38.99 52 40 C53.32 41.32 54.64 42.64 56 44 C53.36 44 50.72 44 48 44 C48.50660156 44.87011719 48.50660156 44.87011719 49.0234375 45.7578125 C51.49693674 50.09001059 53.6367637 54.16670766 55 59 C53.35 58.67 51.7 58.34 50 58 C50.350625 58.763125 50.70125 59.52625 51.0625 60.3125 C52 63 52 63 51 66 C50.34 65.67 49.68 65.34 49 65 C49.495 69.455 49.495 69.455 50 74 C49.01 73.01 48.02 72.02 47 71 C45.63420132 74.93954953 45.63420132 74.93954953 45 79 C45.33 79 45.66 79 46 79 C46.38942012 83.93986628 45.60710932 86.26207038 42.625 90.1875 C41.68527344 91.44626953 41.68527344 91.44626953 40.7265625 92.73046875 C39.87191406 93.85388672 39.87191406 93.85388672 39 95 C36.73245368 97.73131679 36.73245368 97.73131679 37.1875 100.375 C36.91121838 104.24294268 34.78791817 105.39794305 32 108 C27.89372865 112.41701621 26.44433209 115.84103313 26.43359375 121.88671875 C26.84980473 124.14647937 26.84980473 124.14647937 28.77734375 125.76953125 C31.78872139 128.7914937 33.30407362 132.17813171 35.125 136 C35.47175781 136.7115625 35.81851563 137.423125 36.17578125 138.15625 C36.8381226 139.51646059 37.49686188 140.87843321 38.15136719 142.24243164 C38.82008743 143.62739052 39.51143568 145.00142406 40.2109375 146.37109375 C41 148 41 148 41.5 150.0625 C42.21815435 152.84534813 43.68002166 154.68002166 45.6875 156.6875 C47.44419095 159.78262214 46.77997036 161.64073779 45.93359375 165 C45.95550781 165.66 45.97742188 166.32 46 167 C46.61875 167.53826416 47.2375 168.07652832 47.875 168.63110352 C50.67674327 171.75441636 51.27979867 174.89971955 52.06640625 178.90234375 C52.2308876 179.6911644 52.39536896 180.47998505 52.56483459 181.29270935 C54.50993464 190.9774194 55.71585025 200.76596574 56.9375 210.5625 C57.44424112 214.54231488 57.95717006 218.52130902 58.47265625 222.5 C58.66269226 223.9719558 58.66269226 223.9719558 58.85656738 225.47364807 C59.64658754 231.51925148 60.52132125 237.54401609 61.49609375 243.5625 C61.61381638 244.29653549 61.731539 245.03057098 61.85282898 245.78684998 C62.39075963 249.12639972 62.94465706 252.46101349 63.52709961 255.79321289 C65.2830365 266.55622696 65 275.64816787 65 287 C31.67 287 -1.66 287 -36 287 C-35.01 284.03 -34.02 281.06 -33 278 C-32.39623317 275.17771793 -31.85274779 272.40114536 -31.38671875 269.55859375 C-31.1841597 268.37472076 -31.1841597 268.37472076 -30.97750854 267.16693115 C-30.53959472 264.59171582 -30.11286262 262.01481605 -29.6875 259.4375 C-29.38478287 257.6286456 -29.08196545 255.81980798 -28.77905273 254.01098633 C-27.83531861 248.34344395 -26.91373035 242.67244965 -26 237 C-25.84946167 236.06647705 -25.69892334 235.1329541 -25.54382324 234.17114258 C-24.66571085 228.70854676 -23.80372585 223.24371701 -22.96182251 217.77542114 C-22.69871972 216.07030994 -22.43297568 214.36560388 -22.16439819 212.66134644 C-20.23338753 200.3533081 -19.28286764 188.67813771 -20.875 176.25 C-20.95363281 175.56035156 -21.03226563 174.87070313 -21.11328125 174.16015625 C-22.25287961 164.37260072 -22.25287961 164.37260072 -27 156 C-27.90815949 154.80090319 -28.80307529 153.59170857 -29.6875 152.375 C-30.12449219 151.78460938 -30.56148437 151.19421875 -31.01171875 150.5859375 C-32 149 -32 149 -32 147 C-29.03 146.01 -26.06 145.02 -23 144 C-23.0825 142.68 -23.165 141.36 -23.25 140 C-23.24194896 134.88758784 -21.94521885 131.16847268 -19 127 C-16.25 124.5 -16.25 124.5 -14 123 C-14.67518265 119.86312728 -14.67518265 119.86312728 -17.1875 118.75 C-21.80215389 115.8786598 -24.96513972 111.83090664 -27.625 107.125 C-28.76393225 104.82150272 -28.76393225 104.82150272 -30.890625 104.57421875 C-33.5457968 103.85142198 -34.39850986 102.7981568 -36.125 100.6875 C-36.62257813 100.09324219 -37.12015625 99.49898438 -37.6328125 98.88671875 C-39.82910925 95.85582923 -41.14192403 94.04077624 -40.625 90.25 C-40.41875 89.5075 -40.2125 88.765 -40 88 C-40.33 88.33 -40.66 88.66 -41 89 C-41.99 89.495 -41.99 89.495 -43 90 C-43.33 88.68 -43.66 87.36 -44 86 C-45.485 86.495 -45.485 86.495 -47 87 C-46.67 84.36 -46.34 81.72 -46 79 C-46.66 79 -47.32 79 -48 79 C-48.495 79.99 -48.495 79.99 -49 81 C-49.28875 80.0925 -49.5775 79.185 -49.875 78.25 C-50.82120535 75.15661327 -50.82120535 75.15661327 -52.09375 73.17578125 C-53.31705608 70.23879208 -52.97557172 68.08095978 -52.625 64.9375 C-52.30455793 61.92310886 -52 59.03243609 -52 56 C-53.65 55.67 -55.3 55.34 -57 55 C-53.3470437 48.44987147 -53.3470437 48.44987147 -51.3125 45.8125 C-49.90577347 43.86987765 -49.41846591 42.34340912 -49 40 C-51.31 40.66 -53.62 41.32 -56 42 C-53.79975302 37.4619906 -50.6302054 34.73412037 -46.83984375 31.55078125 C-44.9231334 29.97976361 -44.9231334 29.97976361 -43 28 C-43.639375 27.731875 -44.27875 27.46375 -44.9375 27.1875 C-47 26 -47 26 -48 23 C-47.32453125 23.03480469 -46.6490625 23.06960937 -45.953125 23.10546875 C-45.06109375 23.13253906 -44.1690625 23.15960938 -43.25 23.1875 C-42.36828125 23.22230469 -41.4865625 23.25710937 -40.578125 23.29296875 C-37.52389051 22.94589665 -36.19435701 22.11745198 -34 20 C-34 19.34 -34 18.68 -34 18 C-32.02 17.01 -30.04 16.02 -28 15 C-28 14.67 -28 14.34 -28 14 C-26.35 13.67 -24.7 13.34 -23 13 C-24.32 12.34 -25.64 11.68 -27 11 C-24.11788698 10.03929566 -22.30149956 9.89418117 -19.3125 9.9375 C-18.10013672 9.95103516 -18.10013672 9.95103516 -16.86328125 9.96484375 C-15.94095703 9.98224609 -15.94095703 9.98224609 -15 10 C-15.495 8.02 -15.495 8.02 -16 6 C-15.49210937 6.26554687 -14.98421875 6.53109375 -14.4609375 6.8046875 C-10.37781098 8.89977489 -6.4126938 10.67619186 -2 12 C-4.31 10.02 -6.62 8.04 -9 6 C-8.34 5.67 -7.68 5.34 -7 5 C-4.5 6.375 -4.5 6.375 -2 8 C-1.34 8.33 -0.68 8.66 0 9 C0 6.03 0 3.06 0 0 Z " fill="#DDC2B1" transform="translate(132,13)"/>
<path d="M0 0 C2.32554473 0.68673804 3.69227068 1.53221649 5.03173828 3.56835938 C6.09879173 5.60588626 7.09261874 7.66447498 8.0625 9.75 C8.40087891 10.45382813 8.73925781 11.15765625 9.08789062 11.8828125 C9.75343417 13.26796696 10.41396324 14.65554362 11.0690918 16.0456543 C11.9222391 17.83674901 12.81471633 19.60897174 13.7109375 21.37890625 C14.82665803 23.647538 15.41345079 25.57001043 16 28 C17.79571236 30.90602769 17.79571236 30.90602769 19.6875 32.6875 C21.44419095 35.78262214 20.77997036 37.64073779 19.93359375 41 C19.95550781 41.66 19.97742188 42.32 20 43 C20.61875 43.53826416 21.2375 44.07652832 21.875 44.63110352 C24.67674327 47.75441636 25.27979867 50.89971955 26.06640625 54.90234375 C26.2308876 55.6911644 26.39536896 56.47998505 26.56483459 57.29270935 C28.50993464 66.9774194 29.71585025 76.76596574 30.9375 86.5625 C31.44424112 90.54231488 31.95717006 94.52130902 32.47265625 98.5 C32.59934692 99.48130386 32.7260376 100.46260773 32.85656738 101.47364807 C33.64658754 107.51925148 34.52132125 113.54401609 35.49609375 119.5625 C35.61381638 120.29653549 35.731539 121.03057098 35.85282898 121.78684998 C36.39075963 125.12639972 36.94465706 128.46101349 37.52709961 131.79321289 C39.2830365 142.55622696 39 151.64816787 39 163 C5.67 163 -27.66 163 -62 163 C-61.01 160.03 -60.02 157.06 -59 154 C-58.39623317 151.17771793 -57.85274779 148.40114536 -57.38671875 145.55859375 C-57.25167938 144.76934509 -57.11664001 143.98009644 -56.97750854 143.16693115 C-56.53959472 140.59171582 -56.11286262 138.01481605 -55.6875 135.4375 C-55.38478287 133.6286456 -55.08196545 131.81980798 -54.77905273 130.01098633 C-53.83531861 124.34344395 -52.91373035 118.67244965 -52 113 C-51.84946167 112.06647705 -51.69892334 111.1329541 -51.54382324 110.17114258 C-50.66571085 104.70854676 -49.80372585 99.24371701 -48.96182251 93.77542114 C-48.69871972 92.07030994 -48.43297568 90.36560388 -48.16439819 88.66134644 C-46.23454812 76.36070554 -45.2676087 64.72629705 -46.9375 52.3125 C-47.02378662 51.58337402 -47.11007324 50.85424805 -47.19897461 50.10302734 C-47.5546965 47.1359156 -47.95122171 44.21886881 -48.6015625 41.30078125 C-49.71729402 36.03415026 -48.43985707 33.51458614 -45.5625 28.9375 C-44.39757988 27.27560809 -43.21722216 25.6239747 -42 24 C-38.71949504 24.2552338 -37.91216606 25.09890544 -35.67578125 27.6171875 C-34.87720646 28.69519725 -34.08972963 29.78150065 -33.3125 30.875 C-32.90966797 31.41769531 -32.50683594 31.96039063 -32.09179688 32.51953125 C-30.28181831 34.99953538 -28.97702442 37.06892674 -28 40 C-26.49909747 41.44921942 -26.49909747 41.44921942 -24.6875 42.8125 C-22.20713939 44.83222221 -20.43979768 46.62161233 -18.8125 49.375 C-18.214375 50.24125 -17.61625 51.1075 -17 52 C-15.68 52 -14.36 52 -13 52 C-11.34781093 50.35627132 -11.34781093 50.35627132 -10 48.1875 C-6.30353653 42.67293901 -2.23484764 40.29704913 4 38 C5.66591071 37.94980757 7.33441352 37.9400046 9 38 C8.98839844 37.31292969 8.97679687 36.62585938 8.96484375 35.91796875 C8.95582031 35.01691406 8.94679688 34.11585938 8.9375 33.1875 C8.92589844 32.29417969 8.91429687 31.40085938 8.90234375 30.48046875 C9 28 9 28 10 25 C8.730447 24.35165346 7.45930294 23.70642185 6.1875 23.0625 C5.47980469 22.70285156 4.77210938 22.34320313 4.04296875 21.97265625 C1.88189715 20.89269484 1.88189715 20.89269484 -1 20 C-1.11044961 13.26257354 -0.70132913 6.70019789 0 0 Z " fill="#FBEFC7" transform="translate(158,137)"/>
<path d="M0 0 C-0.66 0.33 -1.32 0.66 -2 1 C-0.69161864 3.002807 0.62142194 5.00226099 1.9375 7 C2.49727539 7.85851562 2.49727539 7.85851562 3.06835938 8.734375 C4.01944589 10.17385729 5.00694276 11.58914489 6 13 C6.33 13 6.66 13 7 13 C10.8656709 31.01548513 11.85883461 47.39890287 8.953125 65.72265625 C8.73786588 67.11720597 8.52326036 68.51185672 8.30926514 69.90660095 C7.86089562 72.81616559 7.40648415 75.72469672 6.94726562 78.63256836 C6.36837252 82.29969958 5.80199028 85.96862358 5.23958588 89.6383152 C1.34282532 115.03212158 1.34282532 115.03212158 -1.140625 127.18359375 C-1.35872833 128.27801537 -1.35872833 128.27801537 -1.58123779 129.39454651 C-2.53968744 133.84425613 -3.88707308 136.77414616 -6 141 C-19.2 141 -32.4 141 -46 141 C-46 129.45 -46 117.9 -46 106 C-47.65 105.34 -49.3 104.68 -51 104 C-56.72674755 100.95385769 -60.05760431 96.68352002 -63 91 C-63.66796875 88.21484375 -63.66796875 88.21484375 -64 86 C-64.66 86 -65.32 86 -66 86 C-66.22211116 84.06403108 -66.42722992 82.12610672 -66.625 80.1875 C-66.74101563 79.10855469 -66.85703125 78.02960938 -66.9765625 76.91796875 C-67 74 -67 74 -65 71 C-64.54872198 68.50174849 -64.2032758 66.08105574 -63.9375 63.5625 C-63.8139917 62.46240601 -63.8139917 62.46240601 -63.68798828 61.34008789 C-62.72720138 52.25256584 -62.358685 43.12758929 -62 34 C-61.67 34 -61.34 34 -61 34 C-60.96559814 34.56283691 -60.93119629 35.12567383 -60.89575195 35.70556641 C-60.45491077 54.49113051 -60.45491077 54.49113051 -52.36328125 70.55078125 C-49.55210997 71.98479446 -46.6726613 72.02380645 -43.5625 72.25 C-38.15842286 70.35383258 -35.11774894 66.72247266 -32 62 C-31.02649222 58.3634269 -31.02649222 58.3634269 -31 55 C-29.9375 52.0625 -29.9375 52.0625 -29 50 C-28.67 50 -28.34 50 -28 50 C-27.2041523 53.74912484 -26.41412192 57.49945424 -25.625 61.25 C-25.40328125 62.29414063 -25.1815625 63.33828125 -24.953125 64.4140625 C-23.60650101 70.83032976 -22.43006189 77.24377368 -21.44287109 83.72558594 C-21.2280269 85.95828061 -21.2280269 85.95828061 -20 87 C-19.24990353 82.950636 -18.52059184 78.89808022 -17.80883789 74.84179688 C-17.5649201 73.46777477 -17.31573157 72.09467591 -17.06079102 70.72265625 C-14.70309799 57.99948444 -15.11752017 47.04429695 -18.4375 34.5 C-18.76331055 33.200625 -18.76331055 33.200625 -19.09570312 31.875 C-20.11446714 27.91008059 -21.14856373 24.70287254 -23 21 C-23.33 26.94 -23.66 32.88 -24 39 C-24.33 39 -24.66 39 -25 39 C-25.41277905 13.0298471 -25.41277905 13.0298471 -23 2 C-22.34 2.33 -21.68 2.66 -21 3 C-19.22649415 2.96287347 -17.45414853 2.84766976 -15.6875 2.6875 C-14.74261719 2.60886719 -13.79773438 2.53023437 -12.82421875 2.44921875 C-8.18778137 1.71174946 -4.81418351 -0.2750962 0 0 Z " fill="#93886A" transform="translate(102,159)"/>
<path d="M0 0 C3.33557632 2.9905167 5.15083921 5.93184627 7 10 C8.65 8.35 10.3 6.7 12 5 C12.495 5.99 12.495 5.99 13 7 C13.66 7 14.32 7 15 7 C14.67 8.65 14.34 10.3 14 12 C14.515625 11.835 15.03125 11.67 15.5625 11.5 C18.78123414 10.83974684 21.72277139 10.82124208 25 11 C25.99 11.66 26.98 12.32 28 13 C26.68 13.33 25.36 13.66 24 14 C28.92104318 16.52361189 33.93601936 18.78310181 39 21 C38.67 21.66 38.34 22.32 38 23 C39.0828125 23.6496875 39.0828125 23.6496875 40.1875 24.3125 C41.115625 24.869375 42.04375 25.42625 43 26 C43.928125 26.515625 44.85625 27.03125 45.8125 27.5625 C46.8953125 28.2740625 46.8953125 28.2740625 48 29 C48 29.66 48 30.32 48 31 C46.68 31.66 45.36 32.32 44 33 C46.6598561 36.44216672 49.90288286 36.99504674 54 38 C53.01 38.99 53.01 38.99 52 40 C53.32 41.32 54.64 42.64 56 44 C53.36 44 50.72 44 48 44 C48.50660156 44.87011719 48.50660156 44.87011719 49.0234375 45.7578125 C51.49693674 50.09001059 53.6367637 54.16670766 55 59 C53.35 58.67 51.7 58.34 50 58 C50.350625 58.763125 50.70125 59.52625 51.0625 60.3125 C52 63 52 63 51 66 C50.34 65.67 49.68 65.34 49 65 C49.495 69.455 49.495 69.455 50 74 C49.01 73.01 48.02 72.02 47 71 C46.34 73.31 45.68 75.62 45 78 C43.02 77.01 43.02 77.01 41 76 C40.505 77.98 40.505 77.98 40 80 C36.07016106 76.63156663 33.96806099 72.03391715 33 67 C32.4225 67.2475 31.845 67.495 31.25 67.75 C30.5075 67.8325 29.765 67.915 29 68 C26.75 66.0625 26.75 66.0625 25 64 C24.34 64.99 23.68 65.98 23 67 C22.37351562 66.2059375 21.74703125 65.411875 21.1015625 64.59375 C20.28429687 63.5728125 19.46703125 62.551875 18.625 61.5 C17.81289062 60.4790625 17.00078125 59.458125 16.1640625 58.40625 C15.44992188 57.6121875 14.73578125 56.818125 14 56 C13.34 56 12.68 56 12 56 C12.495 60.455 12.495 60.455 13 65 C11.62437146 63.71034824 10.29233607 62.37310707 9 61 C9 60.34 9 59.68 9 59 C8.34 59 7.68 59 7 59 C7.02320313 59.60328125 7.04640625 60.2065625 7.0703125 60.828125 C7.08835937 61.62734375 7.10640625 62.4265625 7.125 63.25 C7.14820313 64.03890625 7.17140625 64.8278125 7.1953125 65.640625 C6.9828378 68.20731941 6.28654105 69.7916067 5 72 C4.01 69.69 3.02 67.38 2 65 C1.566875 66.093125 1.13375 67.18625 0.6875 68.3125 C-0.49495641 71.09408793 -1.60800043 73.06361939 -4 75 C-4.66 73.68 -5.32 72.36 -6 71 C-6.66 72.65 -7.32 74.3 -8 76 C-10.39073445 72.17482487 -10.55966552 68.40334476 -11 64 C-12.98 65.65 -14.96 67.3 -17 69 C-16.34 65.37 -15.68 61.74 -15 58 C-17.70787127 60.70787127 -19.24353836 62.91148765 -21.125 66.1875 C-22.05658543 67.80734631 -23.00776301 69.41657989 -24 71 C-24.33 71 -24.66 71 -25 71 C-25.33 69.35 -25.66 67.7 -26 66 C-29.38495108 71.44535609 -29.67373505 76.67721029 -30 83 C-32 79.25 -32 79.25 -32 77 C-32.66 77 -33.32 77 -34 77 C-34.33 81.29 -34.66 85.58 -35 90 C-38 87 -38 87 -39 85 C-39.99 86.65 -40.98 88.3 -42 90 C-42.66 88.68 -43.32 87.36 -44 86 C-45.485 86.495 -45.485 86.495 -47 87 C-46.67 84.36 -46.34 81.72 -46 79 C-46.66 79 -47.32 79 -48 79 C-48.495 79.99 -48.495 79.99 -49 81 C-49.28875 80.0925 -49.5775 79.185 -49.875 78.25 C-50.82120535 75.15661327 -50.82120535 75.15661327 -52.09375 73.17578125 C-53.31705608 70.23879208 -52.97557172 68.08095978 -52.625 64.9375 C-52.30455793 61.92310886 -52 59.03243609 -52 56 C-53.65 55.67 -55.3 55.34 -57 55 C-53.3470437 48.44987147 -53.3470437 48.44987147 -51.3125 45.8125 C-49.90577347 43.86987765 -49.41846591 42.34340912 -49 40 C-51.31 40.66 -53.62 41.32 -56 42 C-53.79975302 37.4619906 -50.6302054 34.73412037 -46.83984375 31.55078125 C-44.9231334 29.97976361 -44.9231334 29.97976361 -43 28 C-43.639375 27.731875 -44.27875 27.46375 -44.9375 27.1875 C-47 26 -47 26 -48 23 C-47.32453125 23.03480469 -46.6490625 23.06960937 -45.953125 23.10546875 C-45.06109375 23.13253906 -44.1690625 23.15960938 -43.25 23.1875 C-42.36828125 23.22230469 -41.4865625 23.25710937 -40.578125 23.29296875 C-37.52389051 22.94589665 -36.19435701 22.11745198 -34 20 C-34 19.34 -34 18.68 -34 18 C-32.02 17.01 -30.04 16.02 -28 15 C-28 14.67 -28 14.34 -28 14 C-26.35 13.67 -24.7 13.34 -23 13 C-24.32 12.34 -25.64 11.68 -27 11 C-24.11788698 10.03929566 -22.30149956 9.89418117 -19.3125 9.9375 C-18.10013672 9.95103516 -18.10013672 9.95103516 -16.86328125 9.96484375 C-15.94095703 9.98224609 -15.94095703 9.98224609 -15 10 C-15.495 8.02 -15.495 8.02 -16 6 C-15.49210937 6.26554687 -14.98421875 6.53109375 -14.4609375 6.8046875 C-10.37781098 8.89977489 -6.4126938 10.67619186 -2 12 C-4.31 10.02 -6.62 8.04 -9 6 C-8.34 5.67 -7.68 5.34 -7 5 C-4.5 6.375 -4.5 6.375 -2 8 C-1.34 8.33 -0.68 8.66 0 9 C0 6.03 0 3.06 0 0 Z " fill="#FEFEFA" transform="translate(132,13)"/>
<path d="M0 0 C0.99 0.33 1.98 0.66 3 1 C7.28902281 9.91041668 8.93677547 20.52078736 11.1875 30.125 C11.71899897 32.37815107 12.25206527 34.63090645 12.78791809 36.88302612 C13.11790536 38.27130755 13.44524132 39.66022258 13.76957703 41.04983521 C14.6101796 44.61944013 14.6101796 44.61944013 16 48 C17.3921875 48.2784375 17.3921875 48.2784375 18.8125 48.5625 C22.95426815 50.43035623 23.90359802 52.34935484 25.5 56.5 C26.70165194 62.50825971 23.43139453 67.47197926 20.375 72.4375 C19.58333333 73.625 18.79166667 74.8125 18 76 C16.4601471 79.0797058 16.46818315 82.42581451 16.125 85.8125 C15.5385977 91.25291471 14.7613472 96.49128002 13.4375 101.8125 C11.98777064 107.73036961 10.57014114 113.87918363 11 120 C12.36216189 122.02123559 12.36216189 122.02123559 14 124 C21.64023514 143.46574615 20.91051229 159.68048428 17.4375 179.75 C17.20071108 181.14054661 16.96438028 182.53117131 16.72851562 183.921875 C16.15682058 187.28204182 15.58056552 190.6413565 15 194 C14.67 194 14.34 194 14 194 C13.89977539 193.32646484 13.79955078 192.65292969 13.69628906 191.95898438 C11.71701486 178.79075191 9.59575127 165.83377182 6 153 C5.71125 154.2375 5.4225 155.475 5.125 156.75 C3.43028753 163.47484987 0.18759817 168.35014066 -5 173 C-9.08458754 174.48530456 -12.07336364 174.29818088 -16.125 172.9375 C-21.30896181 170.08883749 -22.38767362 164.85089567 -24.08984375 159.5078125 C-25 156 -25 156 -26 150 C-27.32 159.9 -28.64 169.8 -30 180 C-30.33 180 -30.66 180 -31 180 C-32.1108248 175.69033385 -31.99648585 171.64710628 -31.6875 167.25 C-31.64189941 166.5398877 -31.59629883 165.82977539 -31.54931641 165.09814453 C-31.2715202 161.26245375 -30.81047729 157.60418156 -29.875 153.875 C-28.8217763 149.21072363 -29.4427775 146.1441096 -30.61938477 141.61669922 C-31.27503871 137.10913092 -29.44390081 133.33306443 -27.9375 129.125 C-27.64939453 128.25230469 -27.36128906 127.37960938 -27.06445312 126.48046875 C-24.9316652 120.4063618 -22.04294158 114.02147079 -16 111 C-11.7151764 101.86728302 -8.46960091 91.15829562 -9 81 C-10.46160185 78.6500593 -11.76518484 77.65892472 -14.10546875 76.21875 C-17.3547679 74.12847921 -18.41966708 71.47673242 -20 68 C-20.5 65.375 -20.5 65.375 -20 63 C-19.34 62.21625 -18.68 61.4325 -18 60.625 C-15.41135677 57.22740576 -15.84801275 55.1796493 -16 51 C-15 48.5625 -15 48.5625 -14 47 C-12.02 47 -10.04 47 -8 47 C-8.9008623 40.69396387 -11.2509845 37.43377371 -16.25 33.625 C-17.04148437 33.03589844 -17.83296875 32.44679687 -18.6484375 31.83984375 C-21.51323954 29.59844548 -23.99431668 27.11711017 -26.4921875 24.48046875 C-28.13575113 22.77434571 -28.13575113 22.77434571 -31 21 C-31 19.68 -31 18.36 -31 17 C-27.8980445 16.0230496 -26.52966323 15.73346529 -23.5703125 17.22265625 C-22.76335938 17.82980469 -21.95640625 18.43695313 -21.125 19.0625 C-20.25746094 19.71089844 -19.38992187 20.35929687 -18.49609375 21.02734375 C-13.34578827 25.09761647 -8.64261851 29.35738149 -4 34 C-2.62071219 35.22844662 -1.23346938 36.44799967 0.16015625 37.66015625 C0.87953369 38.28672119 1.59891113 38.91328613 2.34008789 39.55883789 C2.88785889 40.03442139 3.43562988 40.51000488 4 41 C3.77280273 39.55548462 3.77280273 39.55548462 3.54101562 38.08178711 C2.97656555 34.4838154 2.41914812 30.88478255 1.86376953 27.28540039 C1.62315253 25.73237107 1.38066926 24.17962964 1.13623047 22.62719727 C0.78373364 20.38632459 0.43812392 18.14447735 0.09375 15.90234375 C-0.0156189 15.21663803 -0.12498779 14.53093231 -0.2376709 13.82444763 C-0.89127696 9.51409975 -1.18584114 5.35790535 -1 1 C-0.67 0.67 -0.34 0.34 0 0 Z " fill="#EED1BD" transform="translate(67,58)"/>
<path d="M0 0 C12.78933669 5.8705152 21.98439178 18.30424168 27 31 C28.03883383 33.41788575 29.08048645 35.83456243 30.125 38.25 C30.85203125 39.98056641 30.85203125 39.98056641 31.59375 41.74609375 C33.20815286 45.48164259 35.00101679 49.09424708 36.85546875 52.71484375 C38.31016121 55.61926386 39.59705459 58.58251089 40.87890625 61.56640625 C41.74092207 63.43761133 42.68080554 65.27309027 43.65234375 67.08984375 C44.22082031 68.15332031 44.78929687 69.21679688 45.375 70.3125 C46.19097656 71.79169922 46.19097656 71.79169922 47.0234375 73.30078125 C47.34570312 74.19152344 47.66796875 75.08226562 48 76 C47.67128906 76.60972656 47.34257812 77.21945312 47.00390625 77.84765625 C45.58729522 80.8848262 46.61785104 82.85423928 47.7043457 85.88842773 C47.98753662 86.62649658 48.27072754 87.36456543 48.5625 88.125 C48.8411792 88.8869165 49.1198584 89.64883301 49.40698242 90.43383789 C51.23625204 95.326627 53.31072296 99.95397875 56.01953125 104.43359375 C57 107 57 107 58 117 C45.79 117 33.58 117 21 117 C22 114 22 114 25 112 C24.1028125 110.453125 24.1028125 110.453125 23.1875 108.875 C18 99.77379893 18 99.77379893 18 97 C13.38 97.33 8.76 97.66 4 98 C3.9730259 94.58328052 3.95317328 91.16677411 3.9375 87.75 C3.92912109 86.78191406 3.92074219 85.81382812 3.91210938 84.81640625 C3.90888672 83.88183594 3.90566406 82.94726562 3.90234375 81.984375 C3.89710693 81.12553711 3.89187012 80.26669922 3.88647461 79.38183594 C4 77 4 77 4.51147461 74.98657227 C5.09007259 72.63372279 5.0330174 70.64976687 4.9140625 68.23046875 C4.87104004 67.27462891 4.82801758 66.31878906 4.78369141 65.33398438 C4.73132324 64.29564453 4.67895508 63.25730469 4.625 62.1875 C4.27880234 54.80923053 3.96760912 47.43578884 3.8125 40.05078125 C3.51226398 26.4829483 3.13196689 13.25669006 0 0 Z " fill="#FCF0C8" transform="translate(202,183)"/>
<path d="M0 0 C-0.99 0.495 -0.99 0.495 -2 1 C-0.69161864 3.002807 0.62142194 5.00226099 1.9375 7 C2.49727539 7.85851562 2.49727539 7.85851562 3.06835938 8.734375 C4.01944589 10.17385729 5.00694276 11.58914489 6 13 C6.33 13 6.66 13 7 13 C10.8656709 31.01548513 11.85883461 47.39890287 8.953125 65.72265625 C8.73786588 67.11720597 8.52326036 68.51185672 8.30926514 69.90660095 C7.86089562 72.81616559 7.40648415 75.72469672 6.94726562 78.63256836 C6.36837252 82.29969958 5.80199028 85.96862358 5.23958588 89.6383152 C1.34282532 115.03212158 1.34282532 115.03212158 -1.140625 127.18359375 C-1.28602722 127.91320816 -1.43142944 128.64282257 -1.58123779 129.39454651 C-2.53968744 133.84425613 -3.88707308 136.77414616 -6 141 C-10.62 141 -15.24 141 -20 141 C-19.11581069 130.84345701 -17.79013974 121.36016703 -14.9453125 111.55078125 C-13.73527055 107.00562366 -13.0734683 102.46679674 -12.4921875 97.8046875 C-12 95 -12 95 -10.99243164 92.68359375 C-5.84520223 78.76518153 -9.94580426 58.59426472 -12.375 44.125 C-12.48586945 43.46437561 -12.59673889 42.80375122 -12.71096802 42.12310791 C-14.11042975 33.90309892 -14.11042975 33.90309892 -16.171875 25.83203125 C-17 23 -17 23 -16.875 19.5625 C-17.03362733 15.04162107 -18.4977439 11.74425183 -21 8 C-21.66 7.67 -22.32 7.34 -23 7 C-23 5.35 -23 3.7 -23 2 C-22.01 2.495 -22.01 2.495 -21 3 C-19.22649415 2.96287347 -17.45414853 2.84766976 -15.6875 2.6875 C-14.27017578 2.56955078 -14.27017578 2.56955078 -12.82421875 2.44921875 C-8.18778137 1.71174946 -4.81418351 -0.2750962 0 0 Z " fill="#180F39" transform="translate(102,159)"/>
<path d="M0 0 C0.33 0.66 0.66 1.32 1 2 C1.73992187 2.13148438 2.47984375 2.26296875 3.2421875 2.3984375 C6.61679876 3.13454251 8.40021988 4.51837895 11.125 6.625 C15.82346991 10.17750164 20.63571783 13.33417986 25.6875 16.359375 C28.03247765 18.02304157 29.42390786 19.61512373 31 22 C30.67 22.33 30.34 22.66 30 23 C30.42753461 25.04833747 30.8954946 27.08820183 31.375 29.125 C33.78142725 40.61022097 33.61044611 52.3537023 33.85479736 64.03822327 C34.02346413 71.80910234 34.39216563 79.57129 34.78369141 87.33374023 C34.82671387 88.28966064 34.86973633 89.24558105 34.9140625 90.23046875 C34.9548291 91.05957764 34.9955957 91.88868652 35.03759766 92.74291992 C34.99980768 95.01154538 34.57023211 96.81371261 34 99 C33.85701869 100.6586512 33.75458775 102.3210869 33.68359375 103.984375 C33.62075195 105.38623047 33.62075195 105.38623047 33.55664062 106.81640625 C33.51732422 107.78449219 33.47800781 108.75257813 33.4375 109.75 C33.37272461 111.22533203 33.37272461 111.22533203 33.30664062 112.73046875 C33.20077948 115.15351275 33.09869829 117.5766554 33 120 C33.58515381 119.8570752 34.17030762 119.71415039 34.77319336 119.56689453 C39.10108345 118.54987367 43.0898046 117.74900858 47.5625 117.875 C48.40941406 117.89304687 49.25632813 117.91109375 50.12890625 117.9296875 C50.74636719 117.95289063 51.36382812 117.97609375 52 118 C52 118.33 52 118.66 52 119 C50.35 119 48.7 119 47 119 C47.40992188 119.81984375 47.81984375 120.6396875 48.2421875 121.484375 C50.49479167 125.98958333 52.74739583 130.49479167 55 135 C54.0409375 135.433125 54.0409375 135.433125 53.0625 135.875 C50.84793921 136.82823451 50.84793921 136.82823451 50 139 C41.42 139 32.84 139 24 139 C23.91363281 136.24398437 23.82726562 133.48796875 23.73828125 130.6484375 C23.18035518 117.83905538 21.16369192 105.27753043 19.1875 92.625 C18.4541406 87.83917772 17.72714049 83.05239554 17 78.265625 C16.73457649 76.52791336 16.73457649 76.52791336 16.46379089 74.75509644 C14.90673026 64.51622788 13.51382507 54.26186739 12.2800293 43.97900391 C11.00015312 30.21322497 11.00015312 30.21322497 4 19 C3.86328125 16.9296875 3.86328125 16.9296875 4.3125 14.875 C5.35843957 11.21972457 5.35843957 11.21972457 4 9 C3.34 9.66 2.68 10.32 2 11 C1.87625 9.865625 1.7525 8.73125 1.625 7.5625 C1.41875 6.386875 1.2125 5.21125 1 4 C0.34 3.67 -0.32 3.34 -1 3 C-0.67 2.01 -0.34 1.02 0 0 Z " fill="#180F3C" transform="translate(173,161)"/>
<path d="M0 0 C1.1066658 3.31999739 0.95922981 5.29598396 0.66015625 8.76171875 C0.56669922 9.87998047 0.47324219 10.99824219 0.37695312 12.15039062 C0.27318359 13.31763672 0.16941406 14.48488281 0.0625 15.6875 C-0.03740234 16.86634766 -0.13730469 18.04519531 -0.24023438 19.25976562 C-0.48797741 22.17369556 -0.74145451 25.08701192 -1 28 C-0.01 27.67 0.98 27.34 2 27 C2.495 27.99 2.495 27.99 3 29 C5.11015954 30.12706706 5.11015954 30.12706706 7.5625 31.125 C8.38878906 31.47820312 9.21507812 31.83140625 10.06640625 32.1953125 C10.70449219 32.46085937 11.34257812 32.72640625 12 33 C11.01 33.495 11.01 33.495 10 34 C9.53101037 36.8159849 9.53101037 36.8159849 9.375 40.0625 C9.30023438 41.16722656 9.22546875 42.27195313 9.1484375 43.41015625 C9.07496094 44.69212891 9.07496094 44.69212891 9 46 C8.41992188 46.18175781 7.83984375 46.36351562 7.2421875 46.55078125 C-2.29464837 49.61956507 -7.15461411 52.7507424 -13 61 C-16.14571231 60.68219687 -17.62101563 60.39584597 -19.84375 58.07421875 C-20.3903125 57.28660156 -20.936875 56.49898437 -21.5 55.6875 C-24.05654474 52.16737739 -26.54478224 49.6654537 -30 47 C-30.68637009 45.67670173 -31.34941053 44.34125149 -32 43 C-33.11344658 41.22921748 -34.2614934 39.47986777 -35.4375 37.75 C-36.03433594 36.85796875 -36.63117188 35.9659375 -37.24609375 35.046875 C-37.82488281 34.37140625 -38.40367188 33.6959375 -39 33 C-39.99 33 -40.98 33 -42 33 C-43.59412227 35.19993214 -43.59412227 35.19993214 -45 37.9375 C-47.67581475 42.89193825 -47.67581475 42.89193825 -51 44 C-51.98280415 42.39805929 -52.96111717 40.79336258 -53.9375 39.1875 C-54.48277344 38.29417969 -55.02804688 37.40085938 -55.58984375 36.48046875 C-57 34 -57 34 -58 31 C-55.03 30.01 -52.06 29.02 -49 28 C-49.0825 26.68 -49.165 25.36 -49.25 24 C-49.24195191 18.88946312 -47.94740573 15.16604464 -45 11 C-42.3125 8.625 -42.3125 8.625 -40 7 C-39.67 6.34 -39.34 5.68 -39 5 C-38.29875 5.48210937 -37.5975 5.96421875 -36.875 6.4609375 C-29.97590603 11.0540843 -24.80582485 14.24436398 -16.3125 13.8125 C-10.4153896 12.36603896 -7.33691097 9.57529059 -3.6875 4.8125 C-2.99011719 3.91144531 -2.29273438 3.01039063 -1.57421875 2.08203125 C-1.05472656 1.39496094 -0.53523438 0.70789063 0 0 Z " fill="#EACDBA" transform="translate(158,129)"/>
<path d="M0 0 C0.33 0 0.66 0 1 0 C1.03440186 0.56283691 1.06880371 1.12567383 1.10424805 1.70556641 C1.54508923 20.49113051 1.54508923 20.49113051 9.63671875 36.55078125 C12.44789003 37.98479446 15.3273387 38.02380645 18.4375 38.25 C23.84157714 36.35383258 26.88225106 32.72247266 30 28 C30.97350778 24.3634269 30.97350778 24.3634269 31 21 C32.0625 18.0625 32.0625 18.0625 33 16 C33.33 16 33.66 16 34 16 C36.76650484 28.00505014 39.28251083 39.97762616 40.5 52.25 C40.60103027 53.17119629 40.70206055 54.09239258 40.80615234 55.04150391 C41.35304928 61.35632466 41.35304928 61.35632466 39.65234375 64.45703125 C39.10707031 64.96621094 38.56179687 65.47539062 38 66 C37.360625 66.804375 36.72125 67.60875 36.0625 68.4375 C35.0415625 69.7059375 35.0415625 69.7059375 34 71 C33.4225 71.928125 32.845 72.85625 32.25 73.8125 C30 76 30 76 26.5625 76.75 C17.94602148 76.21551919 9.63597855 70.13867303 4 64 C0.86415784 60.26232955 -1.54574623 56.99679146 -2 52 C-2.66 52 -3.32 52 -4 52 C-4.22211116 50.06403108 -4.42722992 48.12610672 -4.625 46.1875 C-4.74101563 45.10855469 -4.85703125 44.02960938 -4.9765625 42.91796875 C-5 40 -5 40 -3 37 C-2.54872198 34.50174849 -2.2032758 32.08105574 -1.9375 29.5625 C-1.85516113 28.829104 -1.77282227 28.09570801 -1.68798828 27.34008789 C-0.72720138 18.25256584 -0.358685 9.12758929 0 0 Z " fill="#978F78" transform="translate(40,193)"/>
<path d="M0 0 C2.97 0.33 5.94 0.66 9 1 C8.34 6.28 7.68 11.56 7 17 C7.66 17.33 8.32 17.66 9 18 C9.73075648 20.3140622 10.40138258 22.64828869 11 25 C11.66 25 12.32 25 13 25 C13 27.31 13 29.62 13 32 C13.66 32 14.32 32 15 32 C15.66 32.99 16.32 33.98 17 35 C17.66 33.35 18.32 31.7 19 30 C19.66 30.33 20.32 30.66 21 31 C20.4740625 32.0828125 20.4740625 32.0828125 19.9375 33.1875 C18.84555593 36.4633322 18.89190395 37.75486156 20 41 C22.93796985 45.97773336 22.93796985 45.97773336 27 50 C28.32 50 29.64 50 31 50 C31.515625 51.19625 32.03125 52.3925 32.5625 53.625 C35.14587608 58.81933269 39.03635038 62.486647 44.203125 65.125 C46.72354833 67.75500696 46.41178012 69.76885556 46.3515625 73.30664062 C46.31804687 74.09232422 46.28453125 74.87800781 46.25 75.6875 C46.23195312 76.48478516 46.21390625 77.28207031 46.1953125 78.10351562 C46.14822247 80.06952449 46.07647899 82.03491494 46 84 C45.67 84 45.34 84 45 84 C44.67 79.71 44.34 75.42 44 71 C39.32649457 74.50512907 37.61118633 77.63847516 36.59375 83.234375 C36.34909226 85.15086062 36.1688288 87.07535163 36 89 C36.99 89.33 37.98 89.66 39 90 C38.01 90.33 37.02 90.66 36 91 C34.79117904 93.00016466 34.79117904 93.00016466 34 95 C33.67 94.01 33.34 93.02 33 92 C31.041036 92.30852185 29.08284287 92.6219418 27.125 92.9375 C25.48917969 93.19853516 25.48917969 93.19853516 23.8203125 93.46484375 C21.06178454 93.85551159 21.06178454 93.85551159 19 95 C16.9625237 95.22858114 14.91959697 95.41024278 12.875 95.5625 C11.77929688 95.64628906 10.68359375 95.73007813 9.5546875 95.81640625 C8.71164063 95.87699219 7.86859375 95.93757813 7 96 C7.21213899 93.77254062 7.42949627 91.54552191 7.6640625 89.3203125 C7.91545158 86.83565298 8.13452315 84.3558496 8.3359375 81.8671875 C9.08473541 73.44882698 10.11619169 67.10108627 15 60 C18.35206877 54.76929198 18.35206877 54.76929198 18.375 48.8125 C17.694375 47.4203125 17.694375 47.4203125 17 46 C16.7525 45.0925 16.505 44.185 16.25 43.25 C15.8375 42.5075 15.425 41.765 15 41 C14.030625 40.7525 13.06125 40.505 12.0625 40.25 C9 39 9 39 8.15673828 37.37719727 C6.07001739 30.54942767 4.39704968 23.6477812 2.8125 16.6875 C2.40354492 14.93856445 2.40354492 14.93856445 1.98632812 13.15429688 C1.72916016 12.03474609 1.47199219 10.91519531 1.20703125 9.76171875 C0.9747583 8.75069092 0.74248535 7.73966309 0.50317383 6.69799805 C0 4 0 4 0 0 Z " fill="#0380CA" transform="translate(73,67)"/>
<path d="M0 0 C0.66 0 1.32 0 2 0 C2.37511719 1.11117188 2.75023437 2.22234375 3.13671875 3.3671875 C6.82019133 14.23088337 6.82019133 14.23088337 12.01953125 24.43359375 C13 27 13 27 14 37 C1.79 37 -10.42 37 -23 37 C-22 34 -22 34 -19 32 C-19.8971875 30.453125 -19.8971875 30.453125 -20.8125 28.875 C-26 19.77379893 -26 19.77379893 -26 17 C-24.35 17 -22.7 17 -21 17 C-21 16.34 -21 15.68 -21 15 C-16.81089021 11.50205119 -12.25010426 8.30668418 -7.125 6.375 C-3.57659446 4.81370156 -2.25026462 3.08369596 0 0 Z " fill="#EDD0BC" transform="translate(246,263)"/>
<path d="M0 0 C0.33 0.66 0.66 1.32 1 2 C1.73992187 2.13148438 2.47984375 2.26296875 3.2421875 2.3984375 C6.61679876 3.13454251 8.40021988 4.51837895 11.125 6.625 C15.82346991 10.17750164 20.63571783 13.33417986 25.6875 16.359375 C28.03247765 18.02304157 29.42390786 19.61512373 31 22 C30.67 22.33 30.34 22.66 30 23 C30.42753461 25.04833747 30.8954946 27.08820183 31.375 29.125 C33.78142725 40.61022097 33.61044611 52.3537023 33.85479736 64.03822327 C34.02346413 71.80910234 34.39216563 79.57129 34.78369141 87.33374023 C34.82671387 88.28966064 34.86973633 89.24558105 34.9140625 90.23046875 C34.9548291 91.05957764 34.9955957 91.88868652 35.03759766 92.74291992 C34.99982064 95.01076756 34.57366645 96.81548029 34 99 C33.8578299 100.58567839 33.75495959 102.17518632 33.68359375 103.765625 C33.62075195 105.09980469 33.62075195 105.09980469 33.55664062 106.4609375 C33.51732422 107.38132812 33.47800781 108.30171875 33.4375 109.25 C33.37272461 110.65378906 33.37272461 110.65378906 33.30664062 112.0859375 C33.2008195 114.39048641 33.09873443 116.69513839 33 119 C31 117 31 117 30.77967834 114.21209717 C30.79316818 113.02158752 30.80665802 111.83107788 30.82055664 110.60449219 C30.82508347 109.94703506 30.82961029 109.28957794 30.83427429 108.61219788 C30.84525434 107.17878047 30.86077442 105.74539247 30.88023567 104.31206512 C30.91050208 102.02069365 30.9272455 99.72957971 30.94029236 97.43804932 C30.97988952 90.91992691 31.04371181 84.40210709 31.11645508 77.88427734 C32.13706351 49.0865993 32.13706351 49.0865993 27 21 C26.34 21.99 25.68 22.98 25 24 C24.79632813 23.08992188 24.59265625 22.17984375 24.3828125 21.2421875 C22.61906717 17.10685241 20.79689344 16.21111353 16.875 14.125 C15.77929688 13.52945313 14.68359375 12.93390625 13.5546875 12.3203125 C12.71164063 11.88460937 11.86859375 11.44890625 11 11 C11.26554688 11.78761719 11.53109375 12.57523438 11.8046875 13.38671875 C12.15789062 14.47597656 12.51109375 15.56523437 12.875 16.6875 C13.22304687 17.74324219 13.57109375 18.79898438 13.9296875 19.88671875 C17.07934847 30.90192652 17.68429749 42.71896033 18.85546875 54.0703125 C19.51304086 60.23593482 20.34360149 66.30196035 21.50927734 72.39208984 C22.45389883 77.41221261 23.17994271 82.46923636 23.94335938 87.51953125 C24.06646484 88.31746094 24.18957031 89.11539063 24.31640625 89.9375 C24.42412354 90.64777344 24.53184082 91.35804688 24.64282227 92.08984375 C24.99445373 94.21081011 24.99445373 94.21081011 26 97 C26.07051114 99.73865287 26.09357765 102.45027588 26.0625 105.1875 C26.05798828 105.93708984 26.05347656 106.68667969 26.04882812 107.45898438 C26.03706354 109.30602383 26.01912865 111.15302213 26 113 C25.34 113 24.68 113 24 113 C24 114.98 24 116.96 24 119 C23.67 119 23.34 119 23 119 C21.74580037 110.6256247 20.49688162 102.2504678 19.25 93.875 C18.97405502 92.02373505 18.97405502 92.02373505 18.6925354 90.1350708 C15.03900421 65.59589023 15.03900421 65.59589023 13.68359375 55.15625 C13.54840836 54.11587082 13.54840836 54.11587082 13.41049194 53.05447388 C13.02099544 50.03237484 12.64357855 47.00925125 12.28027344 43.98388672 C11.00110435 30.21545256 11.00110435 30.21545256 4 19 C3.86328125 16.9296875 3.86328125 16.9296875 4.3125 14.875 C5.35843957 11.21972457 5.35843957 11.21972457 4 9 C3.34 9.66 2.68 10.32 2 11 C1.87625 9.865625 1.7525 8.73125 1.625 7.5625 C1.41875 6.386875 1.2125 5.21125 1 4 C0.34 3.67 -0.32 3.34 -1 3 C-0.67 2.01 -0.34 1.02 0 0 Z " fill="#1A1234" transform="translate(173,161)"/>
<path d="M0 0 C2.01171875 1.33984375 2.01171875 1.33984375 4 4 C4.40408206 7.54607405 4.0947866 11.01316546 3.8125 14.5625 C3.75006104 15.54943848 3.68762207 16.53637695 3.62329102 17.55322266 C3.43888709 20.37113783 3.225945 23.18514566 3 26 C2.89945313 27.28519531 2.79890625 28.57039063 2.6953125 29.89453125 C2.49022386 32.26548027 2.25099555 34.6334705 2 37 C-4.6 37 -11.2 37 -18 37 C-18 25.78 -18 14.56 -18 3 C-16.02 3.66 -14.04 4.32 -12 5 C-9.03456771 5.50127414 -7.08572741 5.34838858 -4 5 C-1.4595774 2.66169042 -1.4595774 2.66169042 0 0 Z " fill="#18123A" transform="translate(74,263)"/>
<path d="M0 0 C4.81304858 2.21005964 8.43614386 5.51483409 12.375 9 C13.13683594 9.62261719 13.89867187 10.24523437 14.68359375 10.88671875 C16.85997076 12.83400344 18.51970316 14.47871474 20 17 C20.13229692 20.624655 19.20818475 23.60921878 18 27 C17.70480469 28.06089844 17.40960938 29.12179688 17.10546875 30.21484375 C15.45454851 35.11140293 13.67902152 39.74656739 11.375 44.375 C8.38105542 50.66688969 7.67270343 57.12236047 7 64 C6.34 64 5.68 64 5 64 C4.40672953 56.21174729 3.9921349 48.44231291 3.81640625 40.6328125 C3.49848476 26.8881749 3.17705726 13.44754427 0 0 Z " fill="#E8DDBA" transform="translate(202,183)"/>
<path d="M0 0 C7.59547297 9.0412022 10.5556043 25.86188495 9.734375 37.48046875 C8.9926006 44.95968576 7.71825687 52.34888307 6.4375 59.75 C6.20071108 61.14054661 5.96438028 62.53117131 5.72851562 63.921875 C5.15682058 67.28204182 4.58056552 70.6413565 4 74 C3.67 74 3.34 74 3 74 C2.89453857 73.31075439 2.78907715 72.62150879 2.68041992 71.91137695 C2.18777975 68.71095332 1.68885854 65.51156968 1.1875 62.3125 C0.91836792 60.59268921 0.91836792 60.59268921 0.64379883 58.83813477 C-0.29563988 52.96341127 -1.33430045 47.19974084 -2.8125 41.4375 C-4.37259862 35.09535994 -3.77442641 30.73590798 -1.98828125 24.42578125 C-0.74495454 19.48045926 -0.55216447 14.57871491 -0.375 9.5 C-0.33632812 8.5821875 -0.29765625 7.664375 -0.2578125 6.71875 C-0.16450436 4.47935472 -0.07871815 2.23994746 0 0 Z " fill="#FCF0C8" transform="translate(78,178)"/>
<path d="M0 0 C0 0.33 0 0.66 0 1 C-1.65 1 -3.3 1 -5 1 C-4.59007812 1.81984375 -4.18015625 2.6396875 -3.7578125 3.484375 C-1.50520833 7.98958333 0.74739583 12.49479167 3 17 C2.360625 17.28875 1.72125 17.5775 1.0625 17.875 C-1.15206079 18.82823451 -1.15206079 18.82823451 -2 21 C-9.26 21 -16.52 21 -24 21 C-23.2884375 17.101875 -23.2884375 17.101875 -22.5625 13.125 C-22.41498291 12.30789551 -22.26746582 11.49079102 -22.11547852 10.64892578 C-21.11111111 5.22222222 -21.11111111 5.22222222 -20 3 C-18.68 3 -17.36 3 -16 3 C-16 2.34 -16 1.68 -16 1 C-10.63904667 -0.12862175 -5.44693314 -0.09688221 0 0 Z " fill="#0288D6" transform="translate(225,279)"/>
<path d="M0 0 C1.98 0.66 3.96 1.32 6 2 C6 2.66 6 3.32 6 4 C6.99 4.33 7.98 4.66 9 5 C10.1922117 14.66543055 10.09622024 24.28175551 10 34 C6.7 34 3.4 34 0 34 C0 22.78 0 11.56 0 0 Z " fill="#211944" transform="translate(56,266)"/>
<path d="M0 0 C0.22515501 3.95756644 0.42727348 7.91597588 0.625 11.875 C0.68945312 13.00292969 0.75390625 14.13085938 0.8203125 15.29296875 C0.89765625 16.90751953 0.89765625 16.90751953 0.9765625 18.5546875 C1.02893066 19.54968262 1.08129883 20.54467773 1.13525391 21.56982422 C1 24 1 24 -1 26 C-1.33 25.67 -1.66 25.34 -2 25 C-2.39832031 25.71027344 -2.79664062 26.42054688 -3.20703125 27.15234375 C-4.00173828 28.53099609 -4.00173828 28.53099609 -4.8125 29.9375 C-5.33457031 30.85402344 -5.85664062 31.77054688 -6.39453125 32.71484375 C-8 35 -8 35 -11 36 C-11.98280415 34.39805929 -12.96111717 32.79336258 -13.9375 31.1875 C-14.48277344 30.29417969 -15.02804688 29.40085938 -15.58984375 28.48046875 C-17 26 -17 26 -18 23 C-15.03 22.01 -12.06 21.02 -9 20 C-9.0825 18.68 -9.165 17.36 -9.25 16 C-9.25 10.89248506 -7.89784245 7.18468096 -5 3 C-1.71875 0 -1.71875 0 0 0 Z " fill="#D3C8AA" transform="translate(118,137)"/>
<path d="M0 0 C1.69905634 0.94392019 3.36021682 1.95650161 5 3 C6.99242489 4.0150089 8.99074195 5.01873444 11 6 C10.01 6.495 10.01 6.495 9 7 C8.53101037 9.8159849 8.53101037 9.8159849 8.375 13.0625 C8.30023438 14.16722656 8.22546875 15.27195313 8.1484375 16.41015625 C8.09945312 17.26480469 8.05046875 18.11945313 8 19 C7.41992188 19.18175781 6.83984375 19.36351562 6.2421875 19.55078125 C-3.29464837 22.61956507 -8.15461411 25.7507424 -14 34 C-15.65 33.67 -17.3 33.34 -19 33 C-19 32.34 -19 31.68 -19 31 C-17.68 31 -16.36 31 -15 31 C-14.7628125 30.16726562 -14.525625 29.33453125 -14.28125 28.4765625 C-12.78842663 24.42591373 -10.77556107 21.02462191 -8.5 17.375 C-3.39287752 9.77434141 -3.39287752 9.77434141 -2 1 C-1.34 0.67 -0.68 0.34 0 0 Z " fill="#D9CEAE" transform="translate(159,156)"/>
<path d="M0 0 C8.6309795 3.85421412 8.6309795 3.85421412 11 8 C10.67 8.33 10.34 8.66 10 9 C10.42753461 11.04833747 10.8954946 13.08820183 11.375 15.125 C13.78142725 26.61022097 13.61044611 38.3537023 13.85479736 50.03822327 C14.02346413 57.80910234 14.39216563 65.57129 14.78369141 73.33374023 C14.82671387 74.28966064 14.86973633 75.24558105 14.9140625 76.23046875 C14.9548291 77.05957764 14.9955957 77.88868652 15.03759766 78.74291992 C14.99982064 81.01076756 14.57366645 82.81548029 14 85 C13.8578299 86.58567839 13.75495959 88.17518632 13.68359375 89.765625 C13.64169922 90.65507812 13.59980469 91.54453125 13.55664062 92.4609375 C13.51732422 93.38132812 13.47800781 94.30171875 13.4375 95.25 C13.39431641 96.18585938 13.35113281 97.12171875 13.30664062 98.0859375 C13.2008195 100.39048641 13.09873443 102.69513839 13 105 C11 103 11 103 10.77967834 100.21209717 C10.79316818 99.02158752 10.80665802 97.83107788 10.82055664 96.60449219 C10.82508347 95.94703506 10.82961029 95.28957794 10.83427429 94.61219788 C10.84525434 93.17878047 10.86077442 91.74539247 10.88023567 90.31206512 C10.91050208 88.02069365 10.9272455 85.72957971 10.94029236 83.43804932 C10.97988952 76.91992691 11.04371181 70.40210709 11.11645508 63.88427734 C12.13706351 35.0865993 12.13706351 35.0865993 7 7 C6.01 8.485 6.01 8.485 5 10 C4.62875 8.6078125 4.62875 8.6078125 4.25 7.1875 C2.93545755 3.83541675 2.02036616 2.8122197 -1 1 C-0.67 0.67 -0.34 0.34 0 0 Z " fill="#171629" transform="translate(193,175)"/>
<path d="M0 0 C1 2 1 2 0.39501953 3.93945312 C0.06099121 4.71224609 -0.27303711 5.48503906 -0.6171875 6.28125 C-0.97683594 7.12300781 -1.33648437 7.96476563 -1.70703125 8.83203125 C-2.09246094 9.71246094 -2.47789063 10.59289062 -2.875 11.5 C-3.25269531 12.38042969 -3.63039063 13.26085937 -4.01953125 14.16796875 C-6.70939217 20.41878434 -6.70939217 20.41878434 -8 23 C-8.16323404 25.85659566 -8.28081639 28.70349193 -8.375 31.5625 C-8.86536332 43.79086409 -10.40860377 55.87365059 -12 68 C-12.33 68 -12.66 68 -13 68 C-14.1108248 63.69033385 -13.99648585 59.64710628 -13.6875 55.25 C-13.64189941 54.5398877 -13.59629883 53.82977539 -13.54931641 53.09814453 C-13.2715202 49.26245375 -12.81047729 45.60418156 -11.875 41.875 C-10.8217763 37.21072363 -11.4427775 34.1441096 -12.61938477 29.61669922 C-13.27503871 25.10913092 -11.44390081 21.33306443 -9.9375 17.125 C-9.64939453 16.25230469 -9.36128906 15.37960938 -9.06445312 14.48046875 C-6.96987377 8.51517852 -4.38048315 4.56067324 0 0 Z " fill="#FCF0C8" transform="translate(49,170)"/>
<path d="M0 0 C0.054138 2.24973447 0.09285491 4.49984383 0.125 6.75 C0.14820312 8.00296875 0.17140625 9.2559375 0.1953125 10.546875 C-0.08457057 15.49520767 -0.08457057 15.49520767 -2 18 C-5.625 18.75 -5.625 18.75 -9 19 C-9.45443818 12.63786552 -8.61422007 8.32944315 -5 3 C-1.71875 0 -1.71875 0 0 0 Z " fill="#FCF0C8" transform="translate(118,137)"/>
<path d="M0 0 C-5.05526898 8.12453943 -5.05526898 8.12453943 -10.3125 9.6875 C-18.96039604 10.69306931 -18.96039604 10.69306931 -23 8 C-20.63606478 5.63606478 -15.20740131 6.01611499 -12.00390625 5.59765625 C-8.89861013 5.26896505 -8.89861013 5.26896505 -7 3 C-7.99 3.66 -8.98 4.32 -10 5 C-12.91796875 5.4140625 -12.91796875 5.4140625 -16.1875 5.625 C-17.27417969 5.69976562 -18.36085937 5.77453125 -19.48046875 5.8515625 C-20.72763672 5.92503906 -20.72763672 5.92503906 -22 6 C-22.33 5.01 -22.66 4.02 -23 3 C-22.18015625 2.86722656 -21.3603125 2.73445313 -20.515625 2.59765625 C-19.43796875 2.42105469 -18.3603125 2.24445313 -17.25 2.0625 C-16.18265625 1.88847656 -15.1153125 1.71445313 -14.015625 1.53515625 C-11.12823852 1.06395502 -11.12823852 1.06395502 -8.84375 0.4375 C-5.91186403 -0.25820175 -2.99705688 -0.05763571 0 0 Z " fill="#FFFFFB" transform="translate(151,119)"/>
<path d="M0 0 C2.97 0.33 5.94 0.66 9 1 C8.34 6.28 7.68 11.56 7 17 C7.66 17.33 8.32 17.66 9 18 C9 19.98 9 21.96 9 24 C7.68 24.33 6.36 24.66 5 25 C4.15924782 21.58511508 3.32870007 18.16782787 2.5 14.75 C2.26152344 13.78191406 2.02304688 12.81382813 1.77734375 11.81640625 C1.55175781 10.88183594 1.32617188 9.94726562 1.09375 8.984375 C0.77954102 7.69611816 0.77954102 7.69611816 0.45898438 6.38183594 C0 4 0 4 0 0 Z " fill="#0A5A90" transform="translate(73,67)"/>
<path d="M0 0 C8.57142857 -0.28571429 8.57142857 -0.28571429 12 2 C11.79375 2.61875 11.5875 3.2375 11.375 3.875 C11.25125 4.57625 11.1275 5.2775 11 6 C11.66 6.66 12.32 7.32 13 8 C7.72 8 2.44 8 -3 8 C-2.01 7.34 -1.02 6.68 0 6 C0.8237956 4.03871245 0.8237956 4.03871245 1 2 C0.67 1.34 0.34 0.68 0 0 Z " fill="#3B2B43" transform="translate(110,95)"/>
<path d="M0 0 C0.66 0 1.32 0 2 0 C2 1.32 2 2.64 2 4 C2.99 3.67 3.98 3.34 5 3 C5.41276847 8.02693031 4.52437156 10.37850901 1.5 14.375 C0.52546875 15.68597656 0.52546875 15.68597656 -0.46875 17.0234375 C-0.9740625 17.67570312 -1.479375 18.32796875 -2 19 C-3.69193359 15.61613282 -2.24788179 11.96815051 -1.5625 8.375 C-1.41490234 7.57320313 -1.26730469 6.77140625 -1.11523438 5.9453125 C-0.7493493 3.96245145 -0.37542879 1.98107623 0 0 Z " fill="#E8CBB8" transform="translate(173,89)"/>
<path d="M0 0 C0.99386719 0.00902344 1.98773438 0.01804687 3.01171875 0.02734375 C4.15060547 0.04474609 4.15060547 0.04474609 5.3125 0.0625 C5.3125 0.3925 5.3125 0.7225 5.3125 1.0625 C2.6725 1.3925 0.0325 1.7225 -2.6875 2.0625 C-2.6875 2.7225 -2.6875 3.3825 -2.6875 4.0625 C-0.74865111 3.77993908 1.18855961 3.4861207 3.125 3.1875 C4.20394531 3.02507812 5.28289062 2.86265625 6.39453125 2.6953125 C9.48571793 2.21117662 9.48571793 2.21117662 12.3125 0.0625 C12.3125 1.0525 12.3125 2.0425 12.3125 3.0625 C7.3068454 4.37977753 2.44753344 5.42062082 -2.6875 6.0625 C-2.0275 6.7225 -1.3675 7.3825 -0.6875 8.0625 C-5.00142226 7.5831753 -6.85319547 6.3167015 -9.6875 3.0625 C-7.75082354 -0.81085293 -3.83275078 -0.04509119 0 0 Z " fill="#53474F" transform="translate(131.6875,120.9375)"/>
<path d="M0 0 C5.75 1.625 5.75 1.625 8 5 C8.556875 5.598125 9.11375 6.19625 9.6875 6.8125 C11 9 11 9 10.6875 12.25 C10.460625 13.1575 10.23375 14.065 10 15 C9.34 15 8.68 15 8 15 C6.93360356 13.37501495 5.95289657 11.69403834 5 10 C3.67045606 7.91810934 2.33186975 5.84238312 0.98828125 3.76953125 C0 2 0 2 0 0 Z " fill="#E6DBB8" transform="translate(168,163)"/>
<path d="M0 0 C0.66 0.33 1.32 0.66 2 1 C-3.04531781 5.57598592 -5.75935571 6.83238047 -12.625 7.1875 C-16 7 -16 7 -19 5 C-16.66780805 2.66780805 -11.4545535 3.02272836 -8.296875 2.59765625 C-5.02321871 2.11935226 -5.02321871 2.11935226 -2.203125 0.87109375 C-1.47609375 0.58363281 -0.7490625 0.29617187 0 0 Z " fill="#FFFFFB" transform="translate(147,122)"/>
<path d="M0 0 C0.33 0 0.66 0 1 0 C1.03738281 0.65226562 1.07476562 1.30453125 1.11328125 1.9765625 C1.52042675 7.38920264 2.34755869 11.17737944 5 16 C4.67 16.66 4.34 17.32 4 18 C-0.08149298 15.09073738 -2.66016102 13.1994317 -4.0625 8.25 C-4 5 -4 5 -2 3 C-1.67 3.66 -1.34 4.32 -1 5 C-0.67 3.35 -0.34 1.7 0 0 Z " fill="#695B5E" transform="translate(97,97)"/>
<path d="M0 0 C0.66 0 1.32 0 2 0 C1.85761163 2.04190981 1.71092972 4.08352045 1.5625 6.125 C1.48128906 7.26195312 1.40007812 8.39890625 1.31640625 9.5703125 C1.02269035 12.7540478 0.56875687 15.85510907 0 19 C-0.66 18.67 -1.32 18.34 -2 18 C-2.33 19.65 -2.66 21.3 -3 23 C-3.33 23 -3.66 23 -4 23 C-3.67 19.04 -3.34 15.08 -3 11 C-2.34 11 -1.68 11 -1 11 C-0.67 7.37 -0.34 3.74 0 0 Z " fill="#18112F" transform="translate(105,243)"/>
<path d="M0 0 C0.7425 0.391875 1.485 0.78375 2.25 1.1875 C1.92 2.5075 1.59 3.8275 1.25 5.1875 C-2.625 6.1875 -2.625 6.1875 -3.75 6.1875 C-2.76 6.8475 -1.77 7.5075 -0.75 8.1875 C-2.07 8.5175 -3.39 8.8475 -4.75 9.1875 C-6.3125 7.375 -6.3125 7.375 -7.75 5.1875 C-6.3370595 0.94867851 -4.60760025 -1.36133644 0 0 Z " fill="#8D7B78" transform="translate(77.75,116.8125)"/>
<path d="M0 0 C3.37663282 0.48237612 4.46886856 1.81958496 6.625 4.375 C3.2230513 6.46850689 0.57227588 6.55442163 -3.375 6.375 C-4 4.5 -4 4.5 -4.375 2.375 C-2.375 0.375 -2.375 0.375 0 0 Z " fill="#49314C" transform="translate(153.375,90.625)"/>
<path d="M0 0 C1 2 1 2 1.125 5.25 C2.18920811 9.81089191 3.74657746 10.97086389 7.40625 13.640625 C9 15 9 15 10 18 C6.52736857 17.43626113 5.08682935 16.39149033 2.875 13.6875 C2.37742187 13.09324219 1.87984375 12.49898437 1.3671875 11.88671875 C-0.79137537 8.90790198 -2.12112777 7.04169884 -1.6875 3.3125 C-1 1 -1 1 0 0 Z " fill="#F5D7C2" transform="translate(93,100)"/>
<path d="M0 0 C1.37432457 3.81756824 0.67975039 7.07255329 0 11 C-2.40072955 8.11912454 -4.47291037 5.43595166 -6 2 C-4.02 1.34 -2.04 0.68 0 0 Z " fill="#FCF0C8" transform="translate(106,158)"/>
<path d="M0 0 C0.28875 0.639375 0.5775 1.27875 0.875 1.9375 C1.82823451 4.15206079 1.82823451 4.15206079 4 5 C4 6.98 4 8.96 4 11 C2.68 11.33 1.36 11.66 0 12 C-1.28571429 3.42857143 -1.28571429 3.42857143 0 0 Z " fill="#152037" transform="translate(78,80)"/>
<path d="M0 0 C1.33333333 0 2.66666667 0 4 0 C3.67 2.31 3.34 4.62 3 7 C2.34 7 1.68 7 1 7 C0.67 7.99 0.34 8.98 0 10 C-0.95024979 6.30458414 -0.95024979 3.69541586 0 0 Z " fill="#474451" transform="translate(169,106)"/>
<path d="M0 0 C3.49084212 1.08336479 4.05521194 2.1047123 5.8125 5.4375 C7 9 7 9 6 12 C4.99466333 10.37829621 3.99588093 8.75252763 3 7.125 C2.443125 6.22007812 1.88625 5.31515625 1.3125 4.3828125 C0 2 0 2 0 0 Z " fill="#FCF0C8" transform="translate(79,166)"/>
<path d="M0 0 C0.66 0.66 1.32 1.32 2 2 C-1.49059704 4.32706469 -3.93105502 4.65185905 -8.0625 5.25 C-9.31160156 5.44078125 -10.56070313 5.6315625 -11.84765625 5.828125 C-12.88792969 5.88484375 -13.92820313 5.9415625 -15 6 C-15.66 5.34 -16.32 4.68 -17 4 C-16.34 4 -15.68 4 -15 4 C-14.67 3.34 -14.34 2.68 -14 2 C-14 2.66 -14 3.32 -14 4 C-12.04020573 3.71831703 -10.08217622 3.42433283 -8.125 3.125 C-7.03445312 2.96257812 -5.94390625 2.80015625 -4.8203125 2.6328125 C-1.88067286 2.23743487 -1.88067286 2.23743487 0 0 Z " fill="#120F1C" transform="translate(143,121)"/>
<path d="M0 0 C0.33 0.99 0.66 1.98 1 3 C0.67 3.66 0.34 4.32 0 5 C-2.97 4.01 -5.94 3.02 -9 2 C-5.5647952 -0.29013653 -4.014669 -0.17842973 0 0 Z " fill="#FFFFFB" transform="translate(160,89)"/>
<path d="M0 0 C-0.99 0.495 -0.99 0.495 -2 1 C-2 2.32 -2 3.64 -2 5 C-4.9375 4.625 -4.9375 4.625 -8 4 C-8.33 3.34 -8.66 2.68 -9 2 C-3.375 -1.125 -3.375 -1.125 0 0 Z " fill="#FFFFFB" transform="translate(113,97)"/>
<path d="M0 0 C1.32 0 2.64 0 4 0 C3.46930939 3.82097239 2.50298434 6.06171403 0 9 C-1.15941038 5.52176885 -0.70820884 3.54104422 0 0 Z " fill="#181130" transform="translate(95,291)"/>
<path d="M0 0 C1.32 0.66 2.64 1.32 4 2 C3.34 2 2.68 2 2 2 C1.67 5.96 1.34 9.92 1 14 C-0.65 14 -2.3 14 -4 14 C-2.68 13.67 -1.36 13.34 0 13 C0 8.71 0 4.42 0 0 Z " fill="#17192D" transform="translate(166,161)"/>
<path d="M0 0 C0.66 0 1.32 0 2 0 C1.67 2.64 1.34 5.28 1 8 C0.34 7.34 -0.32 6.68 -1 6 C-1.99 6.66 -2.98 7.32 -4 8 C-2.87548273 5.0280615 -1.77706209 2.66559313 0 0 Z " fill="#584C52" transform="translate(115,71)"/>
<path d="M0 0 C0.33 0.66 0.66 1.32 1 2 C1.99 2.33 2.98 2.66 4 3 C3.67 3.33 3.34 3.66 3 4 C3.66 4.66 4.32 5.32 5 6 C4.34 7.65 3.68 9.3 3 11 C1.5393715 8.35261084 1 7.10551666 1 4 C0.34 3.67 -0.32 3.34 -1 3 C-0.67 2.01 -0.34 1.02 0 0 Z " fill="#221E2C" transform="translate(173,161)"/>
<path d="M0 0 C0.33 0 0.66 0 1 0 C0.67 4.29 0.34 8.58 0 13 C-2.13464982 8.73070035 -2.17477026 8.27189184 -1 4 C-0.814375 3.236875 -0.62875 2.47375 -0.4375 1.6875 C-0.293125 1.130625 -0.14875 0.57375 0 0 Z " fill="#18112E" transform="translate(103,262)"/>
<path d="M0 0 C0.33 0.66 0.66 1.32 1 2 C1.66 2 2.32 2 3 2 C3.33 1.34 3.66 0.68 4 0 C5.39195915 4.17587745 3.82323219 6.13474776 2 10 C1.67 10 1.34 10 1 10 C0.67 6.7 0.34 3.4 0 0 Z " fill="#B0A691" transform="translate(103,173)"/>
<path d="M0 0 C4.455 2.97 4.455 2.97 9 6 C8.01 6.66 7.02 7.32 6 8 C3.56070254 6.07423885 1.19909405 4.19909405 -1 2 C-0.67 1.34 -0.34 0.68 0 0 Z " fill="#152139" transform="translate(129,174)"/>
<path d="M0 0 C0.66 0.33 1.32 0.66 2 1 C2 2.32 2 3.64 2 5 C0.02 5 -1.96 5 -4 5 C-4 4.34 -4 3.68 -4 3 C-2 1.375 -2 1.375 0 0 Z " fill="#FFFFFB" transform="translate(148,92)"/>
<path d="M0 0 C0.33 0 0.66 0 1 0 C1.22162329 1.62324086 1.42689803 3.248721 1.625 4.875 C1.74101563 5.77992188 1.85703125 6.68484375 1.9765625 7.6171875 C1.98429687 8.40351563 1.99203125 9.18984375 2 10 C1.34 10.66 0.68 11.32 0 12 C-0.66 11.67 -1.32 11.34 -2 11 C-1.34 7.37 -0.68 3.74 0 0 Z " fill="#161B2F" transform="translate(117,151)"/>
<path d="M0 0 C1.4540625 0.0309375 1.4540625 0.0309375 2.9375 0.0625 C2.298125 0.330625 1.65875 0.59875 1 0.875 C-1.39381686 1.94917752 -1.39381686 1.94917752 -2.0625 5.0625 C-2.7225 3.7425 -3.3825 2.4225 -4.0625 1.0625 C-3.0625 0.0625 -3.0625 0.0625 0 0 Z " fill="#E3E3E1" transform="translate(148.0625,118.9375)"/>
</svg>
